<svg version="1.1" xmlns="http://www.w3.org/2000/svg" viewBox="0 0 260 265.3868603957759" width="260" height="265.3868603957759">
  <!-- svg-source:excalidraw -->
  
  <defs>
    <style class="style-fonts">
      @font-face {
        font-family: "Virgil";
        src: url("https://excalidraw.com/Virgil.woff2");
      }
      @font-face {
        font-family: "Cascadia";
        src: url("https://excalidraw.com/Cascadia.woff2");
      }
      @font-face {
        font-family: "Assistant";
        src: url("https://excalidraw.com/Assistant-Regular.woff2");
      }
    </style>
    
  </defs>
  <g stroke-linecap="round" transform="translate(10 15.386860395775898) rotate(0 120 120)"><path d="M89.46 3.06 C101.7 -1.81, 118.95 0.23, 132.56 1.54 C146.17 2.86, 158.76 5.2, 171.11 10.93 C183.45 16.66, 196.92 26, 206.61 35.92 C216.31 45.84, 223.63 57.94, 229.29 70.44 C234.95 82.93, 239.53 97.35, 240.58 110.88 C241.63 124.41, 239.47 138.36, 235.59 151.62 C231.71 164.88, 225.14 179.36, 217.29 190.45 C209.44 201.55, 199.76 210.58, 188.51 218.2 C177.25 225.82, 163.03 232.62, 149.74 236.17 C136.46 239.72, 122.38 240.79, 108.8 239.5 C95.22 238.2, 80.56 234.46, 68.27 228.39 C55.97 222.31, 44.46 212.7, 35.03 203.04 C25.6 193.39, 17.5 182.8, 11.69 170.47 C5.88 158.13, 1.55 142.96, 0.17 129.04 C-1.2 115.12, -0.43 100.04, 3.45 86.97 C7.32 73.9, 15.14 61.63, 23.41 50.61 C31.67 39.59, 39.16 29.2, 53.02 20.84 C66.89 12.49, 94.93 3.37, 106.62 0.46 C118.3 -2.45, 123.04 1.22, 123.13 3.36 M98.19 1.6 C110.74 -2.78, 126.59 0.3, 139.65 2.27 C152.71 4.25, 164.84 7.07, 176.55 13.44 C188.26 19.82, 200.71 29.85, 209.9 40.52 C219.09 51.18, 226.88 64.83, 231.67 77.44 C236.47 90.05, 238.24 102.53, 238.67 116.16 C239.1 129.79, 238.23 145.83, 234.26 159.23 C230.29 172.62, 223.35 185.74, 214.85 196.51 C206.36 207.29, 195.11 216.99, 183.28 223.87 C171.45 230.76, 157.69 235.3, 143.88 237.8 C130.06 240.3, 113.9 240.83, 100.41 238.89 C86.92 236.95, 74.58 232.62, 62.96 226.17 C51.34 219.72, 39.9 210.74, 30.69 200.21 C21.49 189.67, 12.67 175.75, 7.71 162.99 C2.76 150.23, 1.19 137.48, 0.97 123.66 C0.75 109.85, 2.36 93.14, 6.39 80.09 C10.41 67.05, 16.33 55.84, 25.11 45.37 C33.88 34.9, 46.97 24.53, 59.03 17.28 C71.1 10.04, 91.34 4.05, 97.49 1.93 C103.64 -0.2, 95.67 2.78, 95.93 4.56" stroke="#1e1e1e" stroke-width="4" fill="none"></path></g><g stroke-linecap="round"><g transform="translate(132 17.386860395775898) rotate(0 26 109)"><path d="M-0.6 0.14 C-10.6 36.2, -77.57 191.34, -59.11 217.15 C-40.65 242.96, 100.11 191.35, 110.15 155.01 C120.2 118.66, 19.7 24.75, 1.17 -0.91 M1.28 -0.83 C-8.96 35.29, -78.68 192.57, -60.12 218.24 C-41.57 243.91, 102.86 189.61, 112.6 153.19 C122.35 116.77, 17.03 25.53, -1.64 -0.28" stroke="#1e1e1e" stroke-width="4" fill="none"></path></g></g><mask></mask><g stroke-linecap="round"><g transform="translate(116.90906887398023 45.27316825271322) rotate(75.70343469514363 26 108.99999999999997)"><path d="M-0.11 -0.85 C-9.99 35.63, -78.56 193.35, -59.85 219.01 C-41.13 244.66, 102.36 189.42, 112.17 153.09 C121.97 116.77, 17.69 26.56, -1.03 1.04 M-1.63 1.32 C-11.08 37.46, -76.52 191.98, -57.58 217.41 C-38.64 242.85, 102.63 190.33, 112.01 153.94 C121.39 117.54, 17.63 24.62, -1.32 -0.97" stroke="#1e1e1e" stroke-width="4" fill="none"></path></g></g><mask></mask><g stroke-linecap="round"><g transform="translate(81.16903996575411 33.229414147939906) rotate(161.91138892198728 26 109)"><path d="M-0.85 1.01 C-10.47 37.33, -76.3 191.42, -57.83 217.09 C-39.37 242.77, 100.36 191.22, 109.97 155.04 C119.59 118.86, 18.18 25.65, -0.15 0 M0.91 0.49 C-8.76 37.01, -76.74 192.7, -58.17 218.16 C-39.6 243.62, 102.63 189.42, 112.33 153.25 C122.03 117.07, 18.98 26.9, 0.01 1.1" stroke="#1e1e1e" stroke-width="4" fill="none"></path></g></g><mask></mask><g stroke-linecap="round"><g transform="translate(127.32245302649585 3.8200610631844256) rotate(331.6414995821286 26 109)"><path d="M1.17 -0.91 C-8.7 35.43, -78.31 193.22, -60.03 219.04 C-41.75 244.86, 100.84 190.32, 110.85 154 C120.85 117.68, 18.45 26.78, 0 1.12 M0.32 1.23 C-9.11 37.78, -76.13 191.78, -57.85 217.46 C-39.57 243.15, 100.32 191.7, 110 155.32 C119.68 118.93, 18.8 24.96, 0.24 -0.85" stroke="#1e1e1e" stroke-width="4" fill="none"></path></g></g><mask></mask></svg>